<svg width="560" height="289" viewBox="0 0 560 289" fill="none" xmlns="http://www.w3.org/2000/svg">
    <path d="M304.17 288.01V89.99H244.97C244.77 89.99 244.56 89.99 244.34 90C233.7 90.37 225.15 99.12 225.05 109.76C225.05 109.82 225.05 109.88 225.05 109.93V268.4C225.05 268.73 225.07 269.1 225.1 269.51C226 279.71 234.54 287.53 244.77 287.97C245.2 287.99 245.61 288 245.99 288H304.17V288.01Z" fill="currentColor"/>
    <path d="M548.21 287.91C559.24 287.08 567.97 278 568.05 266.93C568.05 266.86 568.05 266.79 568.05 266.72V110.16C568.05 110.1 568.05 110.03 568.05 109.97C568 99.03 559.1 90.11 548.16 90C548.08 90 548 90 547.92 90H488.93V288.02H545.74C546.51 288.02 547.34 287.98 548.21 287.92V287.91Z" fill="currentColor"/>
    <path d="M293.07 90H355.07C361.15 90 369.75 94.92 374.29 101L505.76 277C510.3 283.08 509.05 288 502.98 288H440.98C434.9 288 426.3 283.08 421.76 277L290.28 101C285.74 94.93 286.99 90 293.06 90H293.07Z" fill="currentColor"/>
    <path d="M498.07 90H436.07C429.99 90 421.39 94.92 416.85 101L285.38 277C280.84 283.08 282.09 288 288.16 288H350.16C356.24 288 364.84 283.08 369.38 277L500.85 101C505.39 94.93 504.14 90 498.07 90Z" fill="currentColor"/>
    <path d="M529.07 0C550.05 0 567.07 17.01 567.07 38C567.07 58.99 550.06 76 529.07 76C508.08 76 491.07 58.99 491.07 38C491.07 17.01 508.08 0 529.07 0Z" fill="currentColor"/>
    <path d="M265.07 0C286.05 0 303.07 17.01 303.07 38C303.07 58.99 286.06 76 265.07 76C244.08 76 227.07 58.99 227.07 38C227.07 17.01 244.08 0 265.07 0Z" fill="currentColor"/>
    <path d="M107.17 0.340088C47.98 0.340088 0 48.3201 0 107.51C0 108.67 0.02 109.82 0.06 110.97V213.96C0.06 213.96 0.06 213.97 0.06 213.98V224.45C0.06 224.45 0.06 224.45 0.07 224.44V250.33C0.07 250.53 0.06 250.72 0.06 250.92C0.06 251.12 0.07 251.32 0.08 251.52V252H0.09C0.66 271.89 16.95 287.84 36.98 287.84C57.01 287.84 73.47 271.89 74.04 252V213.98H104.66C105.49 214 106.33 214.01 107.16 214.01C166.35 214.01 214.33 166.7 214.33 107.51C214.33 48.3201 166.36 0.340088 107.17 0.340088ZM107.17 140.01C100.62 140.01 84.02 140.01 77.13 140.01H74.07V107.52C74.07 89.3101 88.96 74.5401 107.17 74.5401C125.38 74.5401 140.15 89.3101 140.15 107.52C140.15 125.73 125.38 140.02 107.17 140.02V140.01Z" fill="currentColor"/>
</svg>
